<svg width="95" height="20" viewBox="0 0 95 20" fill="none" xmlns="http://www.w3.org/2000/svg">
<path d="M9.98873 20C8.66831 19.9993 7.37807 19.7577 6.16218 19.2363C3.66945 18.1754 1.69947 16.1686 0.684658 13.6562C-0.278603 11.1874 -0.223556 8.43715 0.837883 6.00885C1.88028 3.57536 3.85045 1.65861 6.31132 0.683776C8.83112 -0.312691 11.5626 -0.196415 14.0377 0.878497C15.0799 1.34029 16.0355 1.94214 16.8722 2.71946C18.3785 4.1193 19.4013 5.96156 19.7932 7.98047C19.9233 8.65007 19.9755 9.31255 20 9.99323C18.3325 10.0161 16.6615 9.994 14.9936 9.994C14.9451 8.82089 14.6301 7.72039 13.844 6.81947C12.9375 5.78057 11.6233 5.06653 10.2406 4.98025C8.9587 4.90492 7.69994 5.34488 6.74393 6.20234C5.73734 7.10235 5.13137 8.36687 5.06046 9.7154C5.01577 10.5487 5.16485 11.5285 5.54927 12.2802C5.74725 12.6672 6.03732 13.0488 6.32965 13.3701C7.33352 14.4732 8.52571 14.9314 9.98828 15.0002C10.0051 16.666 9.99171 18.3339 9.98873 20Z" fill="white"/>
<path d="M9.99151 9.99271L14.991 9.99368L14.9919 14.9977L9.98827 15.0002L9.98976 11.6025C9.9897 11.0665 9.98005 10.5286 9.99151 9.99271Z" fill="white"/>
<path d="M14.997 14.9989L19.9966 15L19.998 19.9998L14.9878 19.9999C15.0217 19.4527 14.9943 18.8905 14.9942 18.3413L14.997 14.9989Z" fill="white"/>
<path d="M32 3.8H34.1V10H41.5V3.8H43.6V17H41.5V12H34.1V17H32V3.8Z" fill="white"/>
<path d="M45.8 11.96C45.8 10.9067 46.0033 9.99 46.41 9.21C46.8167 8.42333 47.3833 7.81333 48.11 7.38C48.8433 6.94667 49.6933 6.73 50.66 6.73C51.6267 6.73 52.4733 6.94667 53.2 7.38C53.9267 7.81333 54.49 8.42333 54.89 9.21C55.2967 9.99 55.5 10.9067 55.5 11.96C55.5 13.0133 55.2967 13.9367 54.89 14.73C54.49 15.5233 53.9267 16.14 53.2 16.58C52.4733 17.0133 51.6267 17.23 50.66 17.23C49.6933 17.23 48.8433 17.0133 48.11 16.58C47.3833 16.14 46.8167 15.5233 46.41 14.73C46.0033 13.9367 45.8 13.0133 45.8 11.96ZM53.39 11.96C53.39 10.88 53.15 10.0433 52.67 9.45C52.1967 8.85 51.5267 8.55 50.66 8.55C49.7933 8.55 49.1167 8.85 48.63 9.45C48.1433 10.0433 47.9 10.88 47.9 11.96C47.9 13.0533 48.1433 13.9033 48.63 14.51C49.1167 15.11 49.7933 15.41 50.66 15.41C51.5267 15.41 52.1967 15.11 52.67 14.51C53.15 13.9033 53.39 13.0533 53.39 11.96Z" fill="white"/>
<path d="M63.49 17L68.49 6.8H70.79L75.79 17H73.49L72.49 14.5H66.79L65.79 17H63.49ZM67.49 12.5H71.79L69.64 7.5L67.49 12.5Z" fill="white"/>
<path d="M79.49 17L82.99 6.8H85.29L88.79 17H86.49L85.49 14.5H82.79L81.79 17H79.49ZM83.49 12.5H84.79L84.14 10.5L83.49 12.5Z" fill="white"/>
<path d="M77.5 10.65C77.5 9.27667 77.7567 8.07667 78.27 7.05C78.7833 6.02333 79.5033 5.22667 80.43 4.66C81.3567 4.08667 82.44 3.8 83.68 3.8C84.8933 3.8 85.9533 4.07667 86.86 4.63C87.7667 5.17667 88.4733 5.95 88.98 6.95C89.4933 7.94333 89.75 9.10667 89.75 10.44C89.75 11.7867 89.4933 12.9633 88.98 13.97C88.4733 14.9767 87.7667 15.76 86.86 16.32C85.9533 16.88 84.8933 17.16 83.68 17.16C82.44 17.16 81.3567 16.89 80.43 16.35C79.5033 15.8033 78.7833 15.0433 78.27 14.07C77.7567 13.09 77.5 11.95 77.5 10.65ZM87.64 10.44C87.64 8.94 87.2933 7.77333 86.6 6.94C85.9067 6.10667 84.9333 5.69 83.68 5.69C82.38 5.69 81.3733 6.12667 80.66 7C79.9533 7.86667 79.6 9.08333 79.6 10.65C79.6 12.1033 79.9533 13.2367 80.66 14.05C81.3733 14.8567 82.38 15.26 83.68 15.26C84.9333 15.26 85.9067 14.8367 86.6 13.99C87.2933 13.1433 87.64 11.96 87.64 10.44Z" fill="white"/>
<path d="M57.5 10.65C57.5 9.27667 57.7567 8.07667 58.27 7.05C58.7833 6.02333 59.5033 5.22667 60.43 4.66C61.3567 4.08667 62.44 3.8 63.68 3.8C64.8933 3.8 65.9533 4.07667 66.86 4.63C67.7667 5.17667 68.4733 5.95 68.98 6.95C69.4933 7.94333 69.75 9.10667 69.75 10.44C69.75 11.7867 69.4933 12.9633 68.98 13.97C68.4733 14.9767 67.7667 15.76 66.86 16.32C65.9533 16.88 64.8933 17.16 63.68 17.16C62.44 17.16 61.3567 16.89 60.43 16.35C59.5033 15.8033 58.7833 15.0433 58.27 14.07C57.7567 13.09 57.5 11.95 57.5 10.65ZM67.64 10.44C67.64 8.94 67.2933 7.77333 66.6 6.94C65.9067 6.10667 64.9333 5.69 63.68 5.69C62.38 5.69 61.3733 6.12667 60.66 7C59.9533 7.86667 59.6 9.08333 59.6 10.65C59.6 12.1033 59.9533 13.2367 60.66 14.05C61.3733 14.8567 62.38 15.26 63.68 15.26C64.9333 15.26 65.9067 14.8367 66.6 13.99C67.2933 13.1433 67.64 11.96 67.64 10.44Z" fill="white"/>
</svg>
